# xmcd
#
# Track frame offsets: 
#        150
#        10707
#        27554
#        38407
#        48044
#        58694
#        64190
#        76323
#        90048
#        91664
#        115664
#        125867
#        135770
#        150095
#
# Disc length: 2168 seconds
#
# Revision: 0
# Processed by: cddbd v1.5.2PL0 Copyright (c) Steve Scherf et al.
# Submitted via: ExactAudioCopyFreeDBPlugin 1.0
#
DISCID=9008760e
DTITLE=Paul Bradley - Banish Cherish
DYEAR=2014
DGENRE=Folk/Rock
TTITLE0=All Generalizers
TTITLE1=One of My Favourite Weathers
TTITLE2=O Delia
TTITLE3=Little Genociders
TTITLE4=Mammals, Habits, Us
TTITLE5=Too Superstitious 
TTITLE6=The Last Sunny Day
TTITLE7=Good Things Happen To Bad People
TTITLE8=Because Splinter
TTITLE9=The Overreachers
TTITLE10=Down in the Sky
TTITLE11=Whitehead Beach
TTITLE12=Smash the Place Up
TTITLE13=Like Holiday
EXTD=
EXTT0=
EXTT1=
EXTT2=
EXTT3=
EXTT4=
EXTT5=
EXTT6=
EXTT7=
EXTT8=
EXTT9=
EXTT10=
EXTT11=
EXTT12=
EXTT13=
PLAYORDER=
